<mxfile host="app.diagrams.net" modified="2024-05-16T02:27:00.595Z" agent="Mozilla/5.0 (Windows NT 10.0; Win64; x64) AppleWebKit/537.36 (KHTML, like Gecko) Chrome/124.0.0.0 Safari/537.36 Edg/124.0.0.0" etag="pJKY58YMcmKQ9nvFeH70" version="24.4.2" type="device">
  <diagram id="C5RBs43oDa-KdzZeNtuy" name="Page-1">
    <mxGraphModel dx="912" dy="557" grid="1" gridSize="10" guides="1" tooltips="1" connect="1" arrows="1" fold="1" page="1" pageScale="1" pageWidth="827" pageHeight="1169" math="0" shadow="0">
      <root>
        <mxCell id="WIyWlLk6GJQsqaUBKTNV-0" />
        <mxCell id="WIyWlLk6GJQsqaUBKTNV-1" parent="WIyWlLk6GJQsqaUBKTNV-0" />
        <mxCell id="mWeJDaOXfQQJUXX7BbLX-9" style="edgeStyle=orthogonalEdgeStyle;rounded=0;orthogonalLoop=1;jettySize=auto;html=1;exitX=0.5;exitY=1;exitDx=0;exitDy=0;entryX=0.5;entryY=0;entryDx=0;entryDy=0;" parent="WIyWlLk6GJQsqaUBKTNV-1" source="mWeJDaOXfQQJUXX7BbLX-0" edge="1">
          <mxGeometry relative="1" as="geometry">
            <mxPoint x="220" y="320" as="targetPoint" />
          </mxGeometry>
        </mxCell>
        <mxCell id="mWeJDaOXfQQJUXX7BbLX-0" value="ボディ部に&lt;div&gt;ゲーム情報と&lt;/div&gt;&lt;div&gt;開始/終了誘導を表示&lt;/div&gt;" style="rounded=0;whiteSpace=wrap;html=1;" parent="WIyWlLk6GJQsqaUBKTNV-1" vertex="1">
          <mxGeometry x="160" y="240" width="120" height="40" as="geometry" />
        </mxCell>
        <mxCell id="mWeJDaOXfQQJUXX7BbLX-5" value="" style="edgeStyle=orthogonalEdgeStyle;rounded=0;orthogonalLoop=1;jettySize=auto;html=1;" parent="WIyWlLk6GJQsqaUBKTNV-1" target="mWeJDaOXfQQJUXX7BbLX-0" edge="1">
          <mxGeometry relative="1" as="geometry">
            <mxPoint x="220" y="200" as="sourcePoint" />
          </mxGeometry>
        </mxCell>
        <mxCell id="mWeJDaOXfQQJUXX7BbLX-2" value="" style="endArrow=classic;html=1;rounded=0;entryX=0.5;entryY=0;entryDx=0;entryDy=0;" parent="WIyWlLk6GJQsqaUBKTNV-1" edge="1">
          <mxGeometry width="50" height="50" relative="1" as="geometry">
            <mxPoint x="220" y="120" as="sourcePoint" />
            <mxPoint x="220" y="160" as="targetPoint" />
          </mxGeometry>
        </mxCell>
        <mxCell id="mWeJDaOXfQQJUXX7BbLX-3" value="Show_GameTitle()&lt;br&gt;開始" style="ellipse;whiteSpace=wrap;html=1;" parent="WIyWlLk6GJQsqaUBKTNV-1" vertex="1">
          <mxGeometry x="160" y="80" width="120" height="40" as="geometry" />
        </mxCell>
        <mxCell id="mWeJDaOXfQQJUXX7BbLX-4" value="" style="endArrow=classic;html=1;rounded=0;entryX=0.5;entryY=0;entryDx=0;entryDy=0;" parent="WIyWlLk6GJQsqaUBKTNV-1" target="mWeJDaOXfQQJUXX7BbLX-0" edge="1">
          <mxGeometry width="50" height="50" relative="1" as="geometry">
            <mxPoint x="220" y="205" as="sourcePoint" />
            <mxPoint x="270" y="155" as="targetPoint" />
            <Array as="points" />
          </mxGeometry>
        </mxCell>
        <mxCell id="mWeJDaOXfQQJUXX7BbLX-11" style="edgeStyle=orthogonalEdgeStyle;rounded=0;orthogonalLoop=1;jettySize=auto;html=1;exitX=0.5;exitY=1;exitDx=0;exitDy=0;" parent="WIyWlLk6GJQsqaUBKTNV-1" edge="1">
          <mxGeometry relative="1" as="geometry">
            <mxPoint x="219.8965517241379" y="400" as="targetPoint" />
            <mxPoint x="220" y="360" as="sourcePoint" />
          </mxGeometry>
        </mxCell>
        <mxCell id="mWeJDaOXfQQJUXX7BbLX-13" value="Show_GameTitle()&lt;br&gt;終了" style="ellipse;whiteSpace=wrap;html=1;" parent="WIyWlLk6GJQsqaUBKTNV-1" vertex="1">
          <mxGeometry x="160" y="680" width="120" height="45" as="geometry" />
        </mxCell>
        <mxCell id="mWeJDaOXfQQJUXX7BbLX-14" value="Get_Input()" style="shape=process;whiteSpace=wrap;html=1;backgroundOutline=1;" parent="WIyWlLk6GJQsqaUBKTNV-1" vertex="1">
          <mxGeometry x="160" y="320" width="120" height="40" as="geometry" />
        </mxCell>
        <mxCell id="t0XoMQr1IpXtHe-XA2MN-0" style="edgeStyle=orthogonalEdgeStyle;rounded=0;orthogonalLoop=1;jettySize=auto;html=1;exitX=0.5;exitY=1;exitDx=0;exitDy=0;" parent="WIyWlLk6GJQsqaUBKTNV-1" source="mWeJDaOXfQQJUXX7BbLX-16" edge="1">
          <mxGeometry relative="1" as="geometry">
            <mxPoint x="220" y="660" as="targetPoint" />
            <Array as="points">
              <mxPoint x="380" y="660" />
            </Array>
          </mxGeometry>
        </mxCell>
        <mxCell id="mWeJDaOXfQQJUXX7BbLX-16" value="ゲーム開始命令を&lt;div&gt;返す&lt;/div&gt;" style="rounded=0;whiteSpace=wrap;html=1;" parent="WIyWlLk6GJQsqaUBKTNV-1" vertex="1">
          <mxGeometry x="320" y="600" width="120" height="40" as="geometry" />
        </mxCell>
        <mxCell id="mWeJDaOXfQQJUXX7BbLX-44" style="edgeStyle=orthogonalEdgeStyle;rounded=0;orthogonalLoop=1;jettySize=auto;html=1;exitX=0.5;exitY=1;exitDx=0;exitDy=0;entryX=0.5;entryY=0;entryDx=0;entryDy=0;" parent="WIyWlLk6GJQsqaUBKTNV-1" source="mWeJDaOXfQQJUXX7BbLX-17" target="mWeJDaOXfQQJUXX7BbLX-13" edge="1">
          <mxGeometry relative="1" as="geometry" />
        </mxCell>
        <mxCell id="mWeJDaOXfQQJUXX7BbLX-17" value="ゲーム終了命令を&lt;div&gt;返す&lt;/div&gt;" style="rounded=0;whiteSpace=wrap;html=1;" parent="WIyWlLk6GJQsqaUBKTNV-1" vertex="1">
          <mxGeometry x="160" y="600" width="120" height="40" as="geometry" />
        </mxCell>
        <mxCell id="mWeJDaOXfQQJUXX7BbLX-31" style="edgeStyle=orthogonalEdgeStyle;rounded=0;orthogonalLoop=1;jettySize=auto;html=1;exitX=0.5;exitY=1;exitDx=0;exitDy=0;entryX=0.5;entryY=0;entryDx=0;entryDy=0;" parent="WIyWlLk6GJQsqaUBKTNV-1" source="mWeJDaOXfQQJUXX7BbLX-25" target="mWeJDaOXfQQJUXX7BbLX-28" edge="1">
          <mxGeometry relative="1" as="geometry" />
        </mxCell>
        <mxCell id="mWeJDaOXfQQJUXX7BbLX-25" value="isGameStart()" style="shape=process;whiteSpace=wrap;html=1;backgroundOutline=1;" parent="WIyWlLk6GJQsqaUBKTNV-1" vertex="1">
          <mxGeometry x="160" y="400" width="120" height="40" as="geometry" />
        </mxCell>
        <mxCell id="mWeJDaOXfQQJUXX7BbLX-32" style="edgeStyle=orthogonalEdgeStyle;rounded=0;orthogonalLoop=1;jettySize=auto;html=1;exitX=0.5;exitY=1;exitDx=0;exitDy=0;entryX=0.5;entryY=0;entryDx=0;entryDy=0;" parent="WIyWlLk6GJQsqaUBKTNV-1" source="mWeJDaOXfQQJUXX7BbLX-28" target="mWeJDaOXfQQJUXX7BbLX-17" edge="1">
          <mxGeometry relative="1" as="geometry" />
        </mxCell>
        <mxCell id="mWeJDaOXfQQJUXX7BbLX-33" style="edgeStyle=orthogonalEdgeStyle;rounded=0;orthogonalLoop=1;jettySize=auto;html=1;exitX=1;exitY=0.5;exitDx=0;exitDy=0;entryX=0;entryY=0.5;entryDx=0;entryDy=0;" parent="WIyWlLk6GJQsqaUBKTNV-1" source="mWeJDaOXfQQJUXX7BbLX-28" target="mWeJDaOXfQQJUXX7BbLX-34" edge="1">
          <mxGeometry relative="1" as="geometry">
            <mxPoint x="320" y="519.9310344827586" as="targetPoint" />
          </mxGeometry>
        </mxCell>
        <mxCell id="mWeJDaOXfQQJUXX7BbLX-28" value="ゲーム終了&lt;div&gt;命令&lt;/div&gt;" style="rhombus;whiteSpace=wrap;html=1;" parent="WIyWlLk6GJQsqaUBKTNV-1" vertex="1">
          <mxGeometry x="180" y="480" width="80" height="80" as="geometry" />
        </mxCell>
        <mxCell id="mWeJDaOXfQQJUXX7BbLX-36" style="edgeStyle=orthogonalEdgeStyle;rounded=0;orthogonalLoop=1;jettySize=auto;html=1;exitX=0.5;exitY=1;exitDx=0;exitDy=0;entryX=0.5;entryY=0;entryDx=0;entryDy=0;" parent="WIyWlLk6GJQsqaUBKTNV-1" source="mWeJDaOXfQQJUXX7BbLX-34" target="mWeJDaOXfQQJUXX7BbLX-16" edge="1">
          <mxGeometry relative="1" as="geometry" />
        </mxCell>
        <mxCell id="mWeJDaOXfQQJUXX7BbLX-37" style="edgeStyle=orthogonalEdgeStyle;rounded=0;orthogonalLoop=1;jettySize=auto;html=1;exitX=1;exitY=0.5;exitDx=0;exitDy=0;entryX=1;entryY=0.5;entryDx=0;entryDy=0;" parent="WIyWlLk6GJQsqaUBKTNV-1" source="mWeJDaOXfQQJUXX7BbLX-34" target="mWeJDaOXfQQJUXX7BbLX-14" edge="1">
          <mxGeometry relative="1" as="geometry">
            <mxPoint x="440" y="340" as="targetPoint" />
          </mxGeometry>
        </mxCell>
        <mxCell id="mWeJDaOXfQQJUXX7BbLX-34" value="ゲーム開始&lt;div&gt;命令&lt;/div&gt;" style="rhombus;whiteSpace=wrap;html=1;" parent="WIyWlLk6GJQsqaUBKTNV-1" vertex="1">
          <mxGeometry x="340" y="480" width="80" height="80" as="geometry" />
        </mxCell>
        <mxCell id="mWeJDaOXfQQJUXX7BbLX-38" value="Yes" style="text;html=1;align=center;verticalAlign=middle;whiteSpace=wrap;rounded=0;" parent="WIyWlLk6GJQsqaUBKTNV-1" vertex="1">
          <mxGeometry x="170" y="555" width="60" height="30" as="geometry" />
        </mxCell>
        <mxCell id="mWeJDaOXfQQJUXX7BbLX-39" value="Yes" style="text;html=1;align=center;verticalAlign=middle;whiteSpace=wrap;rounded=0;" parent="WIyWlLk6GJQsqaUBKTNV-1" vertex="1">
          <mxGeometry x="330" y="555" width="60" height="30" as="geometry" />
        </mxCell>
        <mxCell id="mWeJDaOXfQQJUXX7BbLX-40" value="No" style="text;html=1;align=center;verticalAlign=middle;whiteSpace=wrap;rounded=0;" parent="WIyWlLk6GJQsqaUBKTNV-1" vertex="1">
          <mxGeometry x="240" y="520" width="60" height="30" as="geometry" />
        </mxCell>
        <mxCell id="mWeJDaOXfQQJUXX7BbLX-42" value="No" style="text;html=1;align=center;verticalAlign=middle;whiteSpace=wrap;rounded=0;" parent="WIyWlLk6GJQsqaUBKTNV-1" vertex="1">
          <mxGeometry x="400" y="520" width="60" height="30" as="geometry" />
        </mxCell>
        <mxCell id="zwO_xFTZf4wgFk3tGOp6-0" value="Show_Headder()" style="shape=process;whiteSpace=wrap;html=1;backgroundOutline=1;" vertex="1" parent="WIyWlLk6GJQsqaUBKTNV-1">
          <mxGeometry x="160" y="160" width="120" height="40" as="geometry" />
        </mxCell>
      </root>
    </mxGraphModel>
  </diagram>
</mxfile>
